<svg width="47" height="54" viewBox="0 0 47 54" fill="none" xmlns="http://www.w3.org/2000/svg">
<path d="M18.5279 22.8255C16.6419 23.6375 15.2339 25.2625 13.4769 26.3245C10.8349 27.9215 7.54092 28.1705 4.92092 29.8045C1.51892 31.9265 -0.192071 36.3275 0.624929 40.2535C1.44193 44.1785 4.60592 47.4525 8.42492 48.6705C11.0919 49.5205 13.8959 49.7785 16.5739 50.6335C18.9989 51.4065 21.0699 52.8535 23.6809 53.2075C26.0739 53.5325 28.6179 53.1135 30.6119 51.7505C31.9149 50.8585 32.7279 49.8495 33.3479 48.3885C34.3129 46.1135 35.3559 42.6605 34.5739 40.1985C33.8539 37.9305 32.0949 36.3395 30.8169 34.4145C29.4749 32.3945 28.9549 29.9555 28.0379 27.7105C26.4699 23.8735 22.7749 20.9975 18.5279 22.8255Z" fill="#F5F5F5" fill-opacity="0.85"/>
<path d="M7.88992 24.0375C8.50292 23.6555 9.04794 23.1685 9.58694 22.6855C11.1719 21.2655 11.4839 19.6705 11.0759 17.5815C10.7469 15.8975 9.96493 14.3365 9.08993 12.8605C8.46193 11.8025 7.64192 10.6375 6.69192 9.83851C6.04292 9.29251 5.16894 8.96451 4.33594 9.12651C3.14093 9.35851 2.34794 10.4845 1.80194 11.5725C0.960938 13.2495 0.394946 15.0645 0.134946 16.9225C-0.0780537 18.4405 -0.0810518 20.0225 0.436948 21.4645C0.954948 22.9065 2.05793 24.1935 3.51993 24.6545C4.81593 25.0625 6.36192 24.8655 7.54992 24.2335C7.66492 24.1725 7.77892 24.1065 7.88992 24.0375Z" fill="#F5F5F5" fill-opacity="0.85"/>
<path d="M13.8499 5.92951C14.6459 3.07351 16.3009 0.55451 19.3469 0.0555103C22.9069 -0.52749 24.7469 3.60851 24.9529 6.51451C25.1699 9.56451 24.6729 13.1725 22.8239 15.6955C20.4189 18.9765 16.5169 18.3015 14.5549 14.9825C12.9999 12.3505 13.0479 8.80751 13.8499 5.92951Z" fill="#F5F5F5" fill-opacity="0.85"/>
<path d="M35.4559 32.6305C35.1129 31.9955 34.8819 31.3015 34.6529 30.6145C33.9809 28.5955 34.5009 27.0555 35.8919 25.4435C37.0129 24.1445 38.4659 23.1775 39.9589 22.3295C41.0289 21.7225 42.3189 21.1175 43.5399 20.8955C44.3749 20.7435 45.2959 20.8925 45.9389 21.4465C46.8609 22.2415 46.9919 23.6115 46.9259 24.8275C46.8239 26.7015 46.4149 28.5575 45.7189 30.3005C45.1509 31.7235 44.3689 33.0995 43.2039 34.0945C42.0389 35.0895 40.4429 35.6595 38.9449 35.3345C37.6169 35.0465 36.3729 34.1075 35.6549 32.9695C35.5849 32.8595 35.5179 32.7455 35.4559 32.6305Z" fill="#F5F5F5" fill-opacity="0.85"/>
<path d="M40.2199 13.5635C40.9199 10.6825 40.7059 7.67551 38.2919 5.75251C35.4699 3.50451 31.8449 6.21551 30.2449 8.64951C28.5659 11.2045 27.2369 14.5965 27.6179 17.7005C28.1139 21.7375 31.8489 23.0555 35.1819 21.1175C37.8259 19.5815 39.5139 16.4665 40.2199 13.5635Z" fill="#F5F5F5" fill-opacity="0.85"/>
</svg>
